<svg xmlns="http://www.w3.org/2000/svg" xmlns:xlink="http://www.w3.org/1999/xlink" version="1.1" x="0px" y="0px" viewBox="0 0 100 100" enable-background="new 0 0 100 100" xml:space="preserve"><g><path d="M7.499,48.042h84.445c1.222,0,2.222-1.17,2.222-2.601c0-14.834-19.898-26.86-44.444-26.86S5.276,30.606,5.276,45.441   C5.276,46.871,6.276,48.042,7.499,48.042z"></path><path d="M9.165,61.549h44.677c-1.633-1.268-3.526-2.566-5.658-3.754c-5.493-3.06-11.172-4.611-16.88-4.611H7.079   c-1.4,0.751-2.358,2.229-2.358,3.921C4.721,59.549,6.721,61.549,9.165,61.549z"></path><path d="M92.411,53.21c-6.444,0.275-12.005,3.151-16.118,8.339h13.983c2.444,0,4.444-2,4.444-4.444   C94.721,55.433,93.785,53.969,92.411,53.21z"></path><path d="M91.388,64.357H74.219c-1.887,2.542-4.179,5.049-8.327,5.049c-1.603,0-4.105-0.38-7.334-3.667   c-0.419-0.427-0.893-0.892-1.418-1.382H6.943c-1.222,0-2.222,1.171-2.222,2.601c0,7.77,6.794,14.066,15.174,14.066H77.88   c8.38,0,15.729-6.297,15.729-14.066C93.609,65.528,92.609,64.357,91.388,64.357z"></path></g></svg>